<?xml version="1.0" standalone="no"?>
<!DOCTYPE svg PUBLIC "-//W3C//DTD SVG 20010904//EN"
 "https://www.w3.org/TR/2001/REC-SVG-20010904/DTD/svg10.dtd">
<svg version="1.0" xmlns="https://www.w3.org/2000/svg"
 width="512.000000pt" height="512.000000pt" viewBox="0 0 512.000000 512.000000"
 preserveAspectRatio="xMidYMid meet">
<metadata>
Created by potrace 1.16, written by Peter Selinger 2001-2019
</metadata>
<g transform="translate(0.000000,512.000000) scale(0.100000,-0.100000)"
fill="#000000" stroke="none">
<path d="M2415 4394 c-16 -2 -136 -8 -265 -14 -253 -11 -367 -24 -555 -65
-188 -41 -259 -61 -420 -120 -131 -48 -154 -60 -190 -97 -22 -24 -78 -72 -123
-107 -92 -71 -261 -244 -330 -336 -110 -147 -159 -326 -148 -540 12 -269 29
-367 90 -533 107 -294 116 -305 476 -529 164 -103 201 -114 420 -124 102 -4
247 -8 323 -9 119 0 162 -5 315 -37 169 -35 186 -37 377 -37 110 -1 232 1 270
4 59 3 77 1 105 -16 51 -29 132 -135 191 -249 70 -134 93 -166 197 -277 49
-52 102 -117 117 -144 44 -77 106 -154 136 -170 46 -23 303 -13 544 22 146 21
263 93 448 278 139 138 237 268 286 379 33 73 132 394 162 522 44 196 33 483
-27 693 -76 262 -385 744 -579 901 -201 162 -526 339 -765 416 -182 58 -498
143 -622 165 -106 20 -359 34 -433 24z m418 -74 c123 -21 451 -109 635 -169
185 -61 478 -214 665 -349 80 -57 232 -211 294 -300 75 -104 236 -379 279
-475 54 -118 77 -205 99 -358 35 -253 17 -387 -107 -783 -77 -247 -130 -336
-313 -525 -188 -193 -278 -256 -407 -285 -75 -17 -374 -46 -474 -46 -68 0 -71
1 -106 37 -20 21 -57 72 -82 113 -25 41 -92 125 -148 186 -83 89 -114 132
-157 215 -98 190 -188 294 -275 319 -35 10 -63 9 -135 0 -153 -21 -373 -8
-581 34 -168 33 -187 35 -460 41 -328 8 -381 14 -470 58 l-65 32 103 6 c136 8
202 40 296 139 90 96 128 173 134 272 6 95 0 118 -40 163 -54 62 -197 120
-342 140 l-49 7 66 59 c145 131 148 261 11 395 -29 29 -85 68 -125 88 -63 31
-81 36 -145 36 -63 0 -76 -3 -103 -25 -16 -14 -40 -42 -52 -62 l-22 -35 19
-57 c13 -40 19 -89 20 -171 3 -206 23 -483 43 -575 10 -49 30 -118 44 -153 25
-61 45 -152 34 -152 -13 0 -115 65 -183 116 -109 82 -138 132 -240 419 -27 74
-52 262 -61 455 -4 87 0 125 20 221 37 170 74 235 246 420 147 158 374 328
484 361 20 6 37 14 37 18 0 14 216 79 365 110 229 47 328 59 605 70 140 6 264
12 275 15 42 8 262 -7 368 -25z m-1757 -1041 c155 -94 210 -210 148 -316 -28
-48 -97 -107 -164 -140 -49 -24 -186 -51 -198 -39 -4 4 -9 79 -10 167 -3 128
-1 159 10 159 8 0 9 3 3 8 -6 4 -21 33 -32 64 l-22 57 31 42 30 42 73 -5 c61
-4 84 -11 131 -39z m114 -549 c169 -31 274 -80 306 -142 25 -48 15 -149 -20
-223 -36 -72 -142 -182 -207 -213 -54 -26 -152 -38 -232 -28 l-56 7 -11 57
c-6 31 -23 83 -37 115 -31 73 -61 214 -69 333 l-7 91 49 7 c27 4 69 11 94 15
25 5 54 7 65 5 11 -3 67 -13 125 -24z"/>
<path d="M2001 4025 c-64 -60 -90 -121 -152 -355 -40 -155 -48 -198 -40 -217
11 -23 38 -29 74 -14 17 6 16 8 -8 19 -15 7 -25 18 -23 25 3 6 20 70 38 140
26 100 37 127 48 122 8 -3 52 0 97 6 46 7 95 9 109 5 25 -6 26 -9 27 -89 1
-101 9 -132 33 -132 17 0 19 15 23 223 2 150 0 229 -8 243 -13 25 -103 69
-142 69 -19 0 -43 -14 -76 -45z m149 -34 c23 -16 25 -26 28 -98 l3 -80 -93 -6
c-51 -4 -105 -10 -120 -13 -21 -5 -28 -3 -28 9 0 35 46 131 83 173 36 41 44
45 71 40 17 -4 42 -15 56 -25z"/>
<path d="M2372 4054 c-110 -14 -122 -18 -122 -40 0 -15 11 -16 100 -11 l100 6
0 -79 c0 -82 -38 -304 -66 -382 -17 -49 -11 -91 13 -86 33 7 103 319 103 464
l0 85 123 -2 c117 -2 122 -2 125 18 2 16 -5 24 -33 33 -41 14 -205 11 -343 -6z"/>
<path d="M1510 4018 c-59 -36 -163 -152 -203 -228 -36 -67 -47 -220 -19 -282
21 -48 63 -88 126 -120 22 -11 56 -31 74 -45 56 -42 87 -40 175 12 55 33 77
51 75 63 -6 29 -34 24 -98 -17 -35 -23 -68 -41 -75 -41 -6 0 -27 12 -46 26
-19 14 -60 39 -92 56 -90 49 -102 72 -99 193 2 88 6 105 29 140 91 140 186
225 250 225 33 0 113 -27 123 -41 3 -4 11 -4 19 0 10 7 11 13 2 30 -17 30 -66
53 -130 58 -50 4 -62 1 -111 -29z"/>
<path d="M2845 4016 c-18 -13 -18 -15 15 -35 19 -11 49 -21 66 -21 17 0 33 -2
36 -5 3 -4 -5 -46 -17 -94 -13 -48 -28 -123 -34 -167 -26 -185 -32 -208 -63
-240 -30 -32 -34 -64 -10 -72 19 -6 81 67 92 109 6 20 17 87 25 148 14 104 57
296 69 308 3 4 18 0 33 -7 17 -8 80 -15 160 -18 119 -4 133 -2 139 13 11 27
-14 35 -117 35 -58 0 -115 6 -145 16 -27 8 -83 19 -124 23 -41 4 -82 11 -90
15 -9 3 -24 0 -35 -8z"/>
<path d="M1018 3976 c-182 -79 -312 -226 -237 -267 29 -15 59 -8 158 36 62 28
99 38 140 39 55 1 55 1 83 -45 58 -93 27 -185 -81 -241 -50 -26 -61 -28 -180
-28 -69 0 -131 4 -136 8 -6 4 -19 20 -28 35 -15 23 -21 26 -33 16 -20 -17 -17
-44 9 -75 22 -25 32 -28 128 -35 183 -14 276 13 352 101 44 52 62 114 49 164
-14 49 -57 121 -84 141 -45 31 -155 12 -271 -47 -32 -16 -63 -28 -69 -26 -15
5 35 61 91 102 107 79 249 127 285 97 12 -10 16 -8 21 9 19 60 -78 68 -197 16z"/>
<path d="M3407 3883 c-4 -3 -2 -12 4 -19 8 -9 -4 -54 -41 -166 -52 -153 -52
-153 -48 -256 4 -93 7 -106 29 -127 25 -25 99 -45 168 -45 20 0 47 -7 59 -16
47 -33 72 9 27 44 -19 15 -49 22 -110 27 -46 4 -91 12 -99 19 -11 7 -17 39
-22 101 -6 89 -6 92 43 235 l49 146 29 -17 c31 -19 199 -53 221 -45 16 6 19
32 5 40 -5 4 -46 12 -90 20 -44 8 -95 21 -113 30 -17 9 -39 14 -49 11 -10 -3
-19 1 -23 10 -6 15 -27 20 -39 8z"/>
<path d="M3931 3683 c-30 -6 -80 -114 -110 -238 -12 -49 -31 -119 -42 -155
-26 -83 -38 -150 -32 -167 3 -7 13 -13 24 -13 13 0 21 12 30 43 6 23 27 96 46
162 20 66 46 158 59 205 29 102 49 125 109 117 46 -7 71 -32 81 -82 9 -52 -13
-86 -71 -109 -123 -48 -135 -55 -135 -74 0 -14 18 -30 55 -51 57 -32 150 -134
186 -203 11 -21 26 -38 35 -38 24 0 29 30 10 64 -30 57 -127 170 -168 198 -26
18 -36 29 -27 33 8 2 34 12 59 20 82 29 118 87 106 170 -15 98 -93 141 -215
118z"/>
<path d="M3600 3629 c-25 -4 -74 -8 -110 -8 -79 -1 -105 -14 -76 -36 35 -26
282 -10 315 20 33 32 -25 43 -129 24z"/>
<path d="M2852 3225 c-110 -24 -299 -140 -392 -241 -90 -98 -136 -250 -126
-424 17 -297 17 -415 2 -470 -15 -57 -11 -75 16 -65 43 17 50 119 37 545 -5
153 4 196 58 301 39 75 68 106 173 181 97 68 193 115 253 124 46 6 47 6 47
-20 0 -14 -18 -73 -39 -130 -57 -147 -67 -216 -50 -330 19 -122 19 -490 0
-570 -10 -46 -23 -70 -58 -107 -28 -31 -43 -54 -39 -64 9 -25 30 -17 77 28 67
64 80 117 86 354 4 131 1 223 -8 295 -22 163 -17 206 40 376 28 82 51 159 51
171 0 23 -33 61 -52 60 -7 0 -41 -7 -76 -14z"/>
<path d="M1720 3206 c-184 -39 -199 -60 -141 -193 36 -81 54 -207 76 -528 16
-230 19 -267 36 -377 12 -76 33 -104 55 -73 8 11 12 33 9 54 -2 20 -7 99 -10
176 -3 77 -12 183 -20 235 -8 52 -15 98 -15 102 0 3 8 4 19 1 10 -2 36 0 57 6
34 9 43 8 76 -14 55 -36 96 -99 193 -290 98 -194 152 -277 174 -273 27 5 23
33 -13 85 -19 28 -69 120 -112 204 -94 189 -152 281 -193 305 -17 10 -30 21
-29 25 2 4 52 46 111 94 133 107 142 123 120 221 -31 138 -82 200 -199 244
-66 24 -62 24 -194 -4z m221 -67 c35 -19 67 -45 79 -64 27 -43 55 -154 47
-186 -4 -16 -38 -50 -94 -94 -49 -38 -104 -83 -124 -101 -23 -20 -53 -34 -80
-39 -24 -4 -50 -12 -56 -17 -9 -7 -13 -7 -13 0 0 80 -35 294 -62 374 -24 73
-29 101 -21 109 17 17 150 47 212 48 42 1 66 -6 112 -30z"/>
<path d="M3115 3086 c-19 -15 -19 -17 -3 -30 10 -7 56 -16 109 -19 50 -3 93
-8 95 -10 6 -6 -95 -344 -163 -547 l-59 -175 -45 -5 c-51 -6 -69 -15 -69 -35
0 -25 62 -48 170 -61 147 -19 209 -18 217 2 9 23 -9 30 -95 37 -42 4 -91 9
-107 12 l-31 7 77 232 c42 128 96 300 120 383 l42 151 51 6 c28 3 70 6 93 6
46 0 61 13 42 36 -10 12 -37 14 -148 12 -75 -2 -167 1 -206 5 -58 7 -74 6 -90
-7z"/>
<path d="M4447 3083 c-11 -11 -8 -55 7 -98 20 -56 39 -255 34 -345 -2 -43 -20
-135 -43 -217 -44 -161 -43 -161 -112 -76 -54 66 -88 97 -174 158 -103 72
-153 132 -210 250 -59 122 -155 240 -207 255 -19 5 -39 7 -43 4 -8 -5 -5 -106
6 -231 6 -58 2 -97 -19 -200 -46 -229 -60 -418 -30 -430 28 -11 37 14 44 134
5 65 17 153 28 195 29 107 46 300 33 358 -6 25 -10 59 -10 75 l0 30 49 -53
c31 -33 68 -91 101 -158 61 -124 124 -198 239 -279 42 -30 94 -74 114 -97 63
-73 99 -107 139 -135 52 -36 72 -24 73 43 1 27 16 101 34 164 23 79 34 145 38
210 5 109 -13 302 -35 375 -9 28 -17 56 -19 63 -4 13 -26 16 -37 5z"/>
<path d="M2455 2505 c-47 -25 -61 -43 -47 -57 10 -10 19 -9 45 1 44 19 101 15
213 -14 102 -27 149 -31 160 -14 12 21 -21 36 -136 62 -167 37 -200 41 -235
22z"/>
<path d="M4372 2113 c-20 -8 -42 -59 -42 -97 0 -25 6 -39 22 -50 37 -26 72
-19 143 30 90 61 112 69 125 44 28 -52 -3 -142 -56 -165 -37 -15 -42 -26 -19
-45 47 -39 135 60 135 154 0 58 -13 91 -44 111 -34 23 -77 9 -155 -49 -64 -47
-85 -54 -96 -35 -12 19 4 59 25 59 27 0 36 21 15 37 -20 14 -31 15 -53 6z"/>
<path d="M3122 1985 c-17 -14 -37 -46 -46 -72 -14 -42 -14 -49 -1 -70 8 -12
28 -25 43 -28 69 -14 77 -19 80 -54 5 -44 -21 -71 -67 -71 -29 0 -44 9 -82 46
-33 32 -53 45 -64 40 -29 -11 -12 -48 43 -93 48 -39 58 -43 108 -43 50 0 59 4
85 31 24 26 29 40 29 81 0 27 -4 58 -10 68 -10 20 -59 40 -96 40 -30 0 -31 23
-4 68 22 36 45 40 90 17 32 -16 42 -10 34 22 -12 46 -96 57 -142 18z"/>
<path d="M3308 1922 c-36 -8 -17 -33 45 -60 26 -11 47 -23 47 -27 0 -9 -62
-117 -101 -175 -21 -31 -53 -64 -73 -75 -59 -32 -38 -71 25 -45 41 18 87 73
145 180 50 92 63 102 98 75 23 -18 52 -19 61 -4 9 14 -19 44 -55 59 -26 11
-28 14 -18 36 16 34 2 42 -26 15 -23 -22 -25 -22 -55 -7 -47 25 -74 33 -93 28z"/>
<path d="M4292 1888 c-46 -12 -65 -60 -66 -163 -1 -65 3 -89 23 -128 24 -50
70 -87 106 -87 40 0 86 39 111 95 39 84 40 112 7 174 -42 81 -117 127 -181
109z m62 -58 c50 -24 88 -77 88 -123 0 -45 -40 -126 -68 -139 -19 -9 -28 -8
-45 8 -37 34 -53 76 -53 144 0 59 17 130 32 130 3 0 24 -9 46 -20z"/>
<path d="M3554 1733 c-35 -35 -108 -160 -136 -231 -46 -119 -36 -158 44 -177
66 -16 150 67 209 205 46 111 56 147 41 162 -17 17 -32 -2 -66 -82 -57 -136
-70 -160 -106 -195 -29 -28 -44 -36 -66 -33 -26 3 -29 7 -28 35 2 39 59 157
119 246 25 38 43 72 40 78 -9 14 -32 11 -51 -8z"/>
<path d="M4134 1740 c-5 -5 -45 -29 -89 -52 -43 -24 -80 -49 -83 -55 -6 -19
27 -28 59 -16 23 9 29 8 29 -1 0 -13 73 -276 85 -307 4 -12 -5 -20 -39 -33
-58 -22 -75 -42 -54 -63 24 -24 70 -8 146 50 37 28 70 55 74 61 21 31 -23 47
-53 20 -10 -9 -21 -15 -24 -12 -3 3 -23 68 -45 144 -22 77 -44 146 -48 154 -7
11 2 22 37 45 49 32 69 75 34 75 -11 0 -23 -4 -29 -10z"/>
<path d="M3758 1590 c-21 -52 -60 -268 -61 -340 l-2 -75 47 -3 c60 -4 138 29
177 74 57 64 63 186 16 291 -29 65 -57 83 -119 81 -41 -2 -50 -6 -58 -28z
m130 -70 c28 -57 31 -168 4 -219 -17 -34 -61 -63 -114 -76 -27 -7 -28 -6 -28
32 0 63 30 224 51 271 25 58 55 55 87 -8z"/>
</g>
</svg>
